<?xml version="1.0" encoding="utf-8"?>
<!-- Generator: Adobe Illustrator 24.0.0, SVG Export Plug-In . SVG Version: 6.00 Build 0)  -->
<svg version="1.1" id="logo1" xmlns="http://www.w3.org/2000/svg" xmlns:xlink="http://www.w3.org/1999/xlink" x="0px" y="0px"
	 viewBox="0 0 60 60" style="enable-background:new 0 0 60 60;" xml:space="preserve">
<style type="text/css">
	.st0{fill:#666666;}
	.st1{fill:#333333;}
	.st2{fill:#FFFFFF;}
	.st3{fill:#FF3333;}
</style>
<circle class="st0" cx="30" cy="30" r="25"/>
<path class="st1" d="M20.76,51.46c2.99,1.36,6.31,2.12,9.82,2.12c13.08,0,23.68-10.6,23.68-23.68S43.66,6.21,30.58,6.21
	c-4.95,0-9.54,1.52-13.34,4.11c0,0.1-0.01,0.21-0.01,0.32c0.23,0.46,1.09,1.19,2.17,1.86c1.75,1.09,3.27,0.89,3.67,0.8
	c-2.03,2.43-3.99,4.87-4.77,7.74c-0.6,2.2-0.57,4.61-1.19,8.09c-0.71,3.93-3.05,6.54-3.05,6.54s2.56,5.04,7.78,4.69
	c8.32-1.37,8.07-4.47,12.55-5.57c3.85-0.94,5.27,0.06,7.09,2.1c1.71,1.92,1.19,6.44-0.81,9.13C33.49,55.64,22.93,52.11,20.76,51.46z
	"/>
<path class="st1" d="M30,6.69c12.87,0,23.31,10.44,23.31,23.31S42.87,53.31,30,53.31S6.69,42.87,6.69,30S17.13,6.69,30,6.69 M30,0.5
	c-7.88,0-15.29,3.07-20.86,8.64C3.57,14.71,0.5,22.12,0.5,30s3.07,15.29,8.64,20.86C14.71,56.43,22.12,59.5,30,59.5
	s15.29-3.07,20.86-8.64C56.43,45.29,59.5,37.88,59.5,30s-3.07-15.29-8.64-20.86C45.29,3.57,37.88,0.5,30,0.5L30,0.5z"/>
<path class="st2" d="M22.52,36.89c0,0,4.31-2.52,9.37-12c5.23-9.8,13.88-6.61,17.68-1.79c3.98,5.05,2.34,11.18,2.34,11.18
	s-7.66-13.07-14.99-6.32C29.55,34.77,22.52,36.89,22.52,36.89z"/>
<path class="st2" d="M38.39,31.23c0,0,5.7,0.8,7.16,7.12c1.41,6.1-2.85,10.57-2.85,10.57s3.25-2.23,4.44-3.9
	c1.31-1.84,2.78-5.75,1.28-10.34C46.3,28.18,38.39,31.23,38.39,31.23z"/>
<path class="st3" d="M36.75,8.34c-8.06-2.66-15.87,1.02-15.87,1.02s1.15,1.02,3.67,1.28c1.84,0.19,7.38,0.35,7.38,0.35
	s-3.8,1.81-5.79,3.67c-1.51,1.41-3.78,4.34-4.46,6.1c-0.64,1.65-0.91,5.99-1.24,7.74C20.15,30.08,18.81,34,18.81,34
	s3.35,0.01,5.96-3.15c1.75-2.12,3.98-7.19,5.61-9.52c1.55-2.21,4.25-5.29,9.33-5.79c5.88-0.57,9.86,2.74,9.86,2.74
	S45.86,11.34,36.75,8.34z M25.6,22.79c-0.32,0.59-1.26,2.3-1.76,2.3c-0.42,0-1.03-1.46,0.09-3.27c0.94-1.52,2.76-1.67,2.76-1.67
	S26.3,21.51,25.6,22.79z"/>
</svg>
