<?xml version="1.0" encoding="utf-8"?>
<!-- Generator: Adobe Illustrator 24.0.0, SVG Export Plug-In . SVG Version: 6.00 Build 0)  -->
<svg version="1.1" id="Layer_1" xmlns="http://www.w3.org/2000/svg" xmlns:xlink="http://www.w3.org/1999/xlink" x="0px" y="0px"
	 viewBox="0 0 600 600" style="enable-background:new 0 0 600 600;" xml:space="preserve">
<style type="text/css">
	.st0{fill:#FFFFFF;}
	.st1{fill:#333333;}
	.st2{display:none;fill:#FFFFFF;}
	.st3{display:none;fill:#FF3333;}
</style>
<circle class="st0" cx="300" cy="300" r="295"/>
<path class="st1" d="M183.08,517.24c30.13,13.74,63.62,21.41,98.91,21.41c131.8,0,238.64-106.84,238.64-238.64
	S413.79,61.36,281.99,61.36c-49.86,0-96.14,15.3-134.42,41.44c-0.05,1.05-0.09,2.1-0.13,3.18c2.36,4.61,11,11.98,21.83,18.71
	c17.66,10.97,32.94,8.95,36.97,8.02c-20.49,24.5-40.18,49.12-48.11,77.95c-6.09,22.16-5.71,46.4-12.03,81.51
	c-7.13,39.64-30.73,65.92-30.73,65.92s25.83,50.78,78.4,47.22c83.85-13.81,81.36-45.06,126.5-56.12
	c38.78-9.5,53.08,0.56,71.42,21.18c17.22,19.36,11.97,64.86-8.17,91.96C311.36,559.43,204.9,523.79,183.08,517.24z"/>
<path class="st2" d="M211.71,381.33c0,0,50.86-29.73,110.57-141.65c61.7-115.64,163.8-77.96,208.66-21.1
	c46.97,59.53,27.65,131.97,27.65,131.97s-90.44-154.26-176.83-74.59C294.65,356.29,211.71,381.33,211.71,381.33z"/>
<path class="st2" d="M398.98,314.56c0,0,67.29,9.39,84.5,83.98c16.61,71.97-33.62,124.77-33.62,124.77s38.36-26.34,52.4-46
	c15.5-21.7,32.86-67.81,15.13-122.06C492.31,278.53,398.98,314.56,398.98,314.56z"/>
<path class="st3" d="M379.68,44.36c-95.13-31.4-187.26,12-187.26,12s13.56,12,43.3,15.13c21.68,2.28,87.11,4.17,87.11,4.17
	s-44.86,21.39-68.33,43.3c-17.83,16.64-44.58,51.21-52.68,71.98c-7.61,19.52-10.78,70.69-14.61,91.28
	c-3.48,18.74-19.23,65.04-19.23,65.04s39.57,0.17,70.35-37.22c20.6-25.02,47.01-84.86,66.25-112.32
	c18.29-26.11,50.14-62.48,110.06-68.33c69.38-6.78,116.32,32.34,116.32,32.34S487.13,79.83,379.68,44.36z M248.1,214.93
	c-3.8,6.99-14.87,27.13-20.73,27.12c-4.96,0-12.19-17.2,1.04-38.6c11.08-17.93,32.61-19.73,32.61-19.73S256.31,199.8,248.1,214.93z"
	/>
</svg>
