<?xml version="1.0" encoding="utf-8"?>
<!-- Generator: Adobe Illustrator 24.0.0, SVG Export Plug-In . SVG Version: 6.00 Build 0)  -->
<svg version="1.1" xmlns="http://www.w3.org/2000/svg" xmlns:xlink="http://www.w3.org/1999/xlink" x="0px" y="0px"
	 viewBox="0 0 192 45" style="enable-background:new 0 0 192 45;" xml:space="preserve">
<style type="text/css">
	.st0{fill:#FF3333;}
	.st1{fill:#333333;}
	.st2{fill:#666666;}
	.st3{fill:#FFFFFF;}
</style>
<g id="logo2">
	<path id="bgrd" class="st0" d="M12.01,15.67v18.04c0,1.47-1.19,2.67-2.67,2.67H5.91c-1.47,0-2.67-1.19-2.67-2.67V15.67
		c0-1.47,1.19-2.67,2.67-2.67h3.44C10.82,13.01,12.01,14.2,12.01,15.67z M7.65,2.58c1.19,0,2.21,0.42,3.08,1.25s1.3,1.82,1.3,2.96
		c0,1.22-0.41,2.22-1.23,3s-1.87,1.17-3.15,1.17S5.32,10.58,4.5,9.79s-1.23-1.78-1.23-3c0-1.14,0.43-2.13,1.3-2.96
		S6.46,2.58,7.65,2.58z"/>
	<path id="bgrd_1_" class="st0" d="M35.55,36.37h-8.77v-13.2c0-1.34-0.55-2.02-1.66-2.02c-1.09,0-1.64,0.67-1.64,2.02v13.2h-8.77
		V23.34c0-3.05,1.01-5.61,3.02-7.7s4.48-3.13,7.41-3.13c3.34,0,6.02,1.21,8.04,3.63c1.58,1.89,2.37,4.52,2.37,7.9V36.37z"/>
	<path id="bgrd_2_" class="st0" d="M52.61,4.38h8.77v19.48c0,3.58-0.94,6.49-2.81,8.74c-1.08,1.3-2.45,2.33-4.11,3.09
		s-3.37,1.15-5.12,1.15c-3.48,0-6.42-1.17-8.81-3.52s-3.59-5.22-3.59-8.63c0-3.3,1.19-6.15,3.56-8.56s5.19-3.61,8.44-3.61
		c0.52,0,1.3,0.05,2.34,0.14v9.66c-0.72-0.56-1.44-0.84-2.16-0.84c-0.91,0-1.68,0.33-2.33,1c-0.65,0.66-0.97,1.47-0.97,2.4
		c0,0.91,0.34,1.68,1.01,2.33s1.48,0.97,2.41,0.97c2.25,0,3.38-1.55,3.38-4.66V4.38z"/>
	<g id="bgdk_1_">
		<path id="bgdk_3_" class="st1" d="M131.86,12.7h-2.65c-3.05,0-5.43,0.84-7.15,2.51c-0.98,0.95-1.64,1.91-1.96,2.88
			s-0.54,2.65-0.67,5.04c-0.09,1.47-0.44,2.5-1.04,3.08s-1.61,0.88-3.01,0.88h-0.37v-2.18c0-3.83-1.09-6.85-3.27-9.06
			s-5.16-3.32-8.94-3.32c-3.39,0-6.27,1.18-8.64,3.54s-3.55,5.23-3.55,8.63c0,3.48,1.17,6.38,3.52,8.7s5.27,3.47,8.79,3.47
			c0.15,0,0.31,0,0.46-0.01c0.84-0.04,1.5-0.72,1.5-1.56v-5.56c0-0.9-0.76-1.65-1.66-1.54c-0.16,0.02-0.32,0.03-0.48,0.03
			c-0.94,0-1.71-0.31-2.32-0.94s-0.91-1.42-0.91-2.39c0-0.92,0.34-1.72,1.01-2.39c0.67-0.67,1.47-1.01,2.39-1.01
			c1.02,0,1.82,0.37,2.43,1.1c0.6,0.73,0.9,1.72,0.9,2.95v9.27c0,0.86,0.7,1.55,1.55,1.55h7.21v0h1.19c3.02,0,5.34-0.48,6.98-1.45
			c3.09-1.86,4.84-5.05,5.25-9.56c0.13-1.36,0.42-2.27,0.88-2.73c0.08-0.08,0.16-0.15,0.26-0.21c0.98-0.64,2.28,0.2,2.28,1.37v10.74
			c0,0.86,0.7,1.55,1.55,1.55h5.66c0.86,0,1.55-0.7,1.55-1.55V14.26c0-0.86-0.7-1.55-1.55-1.55h-7.21V12.7z"/>
		<path id="bgdk_2_" class="st1" d="M136.26,10.67c1.28,0,2.33-0.39,3.15-1.17s1.23-1.78,1.23-3c0-1.14-0.43-2.13-1.3-2.96
			s-1.89-1.25-3.08-1.25s-2.21,0.42-3.08,1.25s-1.3,1.82-1.3,2.96c0,1.22,0.41,2.22,1.23,3S134.98,10.67,136.26,10.67z"/>
	</g>
	<path id="bgdk" class="st1" d="M185.95,15.95c-2.39-2.34-5.33-3.52-8.81-3.52c-1.75,0-3.46,0.38-5.12,1.15s-3.04,1.8-4.11,3.09
		c-1.05,1.26-1.8,2.74-2.26,4.43c-0.46-1.68-1.21-3.16-2.26-4.43c-1.08-1.3-2.45-2.33-4.11-3.09s-3.37-1.15-5.12-1.15
		c-3.48,0-6.42,1.17-8.81,3.52s-3.59,5.22-3.59,8.63c0,3.31,1.19,6.17,3.56,8.58s5.19,3.61,8.44,3.61c0.01,0,0.01,0,0.02,0
		c1.29,0,2.33-1.08,2.33-2.37v-7.45c-0.72,0.58-1.44,0.87-2.16,0.87c-0.91,0-1.68-0.34-2.33-1.01s-0.97-1.47-0.97-2.39
		c0-1,0.4-1.85,1.2-2.53c0.63-0.54,1.41-0.8,2.24-0.8c2.24,0.01,3.36,1.56,3.36,4.66v10.41c0.21,9.81,16.12,9.97,16.43,0V25.75
		c0-3.39,1.34-4.93,4.01-4.63c0.37,0.04,0.74,0.17,1.06,0.37c1.15,0.74,1.73,1.71,1.73,2.92c0,0.92-0.32,1.72-0.97,2.39
		s-1.43,1.01-2.33,1.01c-0.72,0-1.44-0.29-2.16-0.87v7.45c0,1.29,1.04,2.37,2.33,2.37c0.01,0,0.01,0,0.02,0
		c3.25,0,6.06-1.2,8.44-3.61s3.56-5.27,3.56-8.58C189.53,21.17,188.34,18.29,185.95,15.95z"/>
</g>
<g id="logo1">
	<circle class="st2" cx="75.88" cy="22.5" r="11.44"/>
	<path class="st1" d="M71.65,32.32c1.37,0.62,2.89,0.97,4.49,0.97c5.99,0,10.84-4.85,10.84-10.84s-4.85-10.84-10.84-10.84
		c-2.26,0-4.37,0.69-6.11,1.88c0,0.05,0,0.1-0.01,0.14c0.11,0.21,0.5,0.54,0.99,0.85c0.8,0.5,1.5,0.41,1.68,0.36
		c-0.93,1.11-1.82,2.23-2.18,3.54c-0.28,1.01-0.26,2.11-0.55,3.7c-0.32,1.8-1.4,2.99-1.4,2.99s1.17,2.31,3.56,2.14
		c3.81-0.63,3.7-2.05,5.75-2.55c1.76-0.43,2.41,0.03,3.24,0.96c0.78,0.88,0.54,2.95-0.37,4.18C77.48,34.24,72.64,32.62,71.65,32.32z
		"/>
	<path class="st1" d="M75.88,11.83c5.89,0,10.67,4.78,10.67,10.67s-4.78,10.67-10.67,10.67c-5.89,0-10.67-4.78-10.67-10.67
		S69.99,11.83,75.88,11.83 M75.88,9c-3.61,0-7,1.4-9.55,3.95c-2.55,2.55-3.95,5.94-3.95,9.55s1.4,7,3.95,9.55
		C68.89,34.6,72.28,36,75.88,36s7-1.4,9.55-3.95c2.55-2.55,3.95-5.94,3.95-9.55s-1.4-7-3.95-9.55C82.88,10.4,79.49,9,75.88,9
		L75.88,9z"/>
	<path class="st3" d="M72.46,25.65c0,0,1.97-1.15,4.29-5.49c2.39-4.48,6.35-3.02,8.09-0.82c1.82,2.31,1.07,5.12,1.07,5.12
		s-3.51-5.98-6.86-2.89C75.67,24.68,72.46,25.65,72.46,25.65z"/>
	<path class="st3" d="M79.72,23.06c0,0,2.61,0.36,3.28,3.26c0.64,2.79-1.3,4.84-1.3,4.84s1.49-1.02,2.03-1.78
		c0.6-0.84,1.27-2.63,0.59-4.73C83.34,21.67,79.72,23.06,79.72,23.06z"/>
	<path class="st0" d="M78.97,12.59c-3.69-1.22-7.26,0.47-7.26,0.47s0.53,0.47,1.68,0.59c0.84,0.09,3.38,0.16,3.38,0.16
		s-1.74,0.83-2.65,1.68c-0.69,0.65-1.73,1.99-2.04,2.79c-0.3,0.76-0.42,2.74-0.57,3.54c-0.13,0.73-0.75,2.52-0.75,2.52
		s1.53,0.01,2.73-1.44c0.8-0.97,1.82-3.29,2.57-4.36c0.71-1.01,1.94-2.42,4.27-2.65c2.69-0.26,4.51,1.25,4.51,1.25
		S83.14,13.96,78.97,12.59z M73.87,19.2c-0.15,0.27-0.58,1.05-0.8,1.05c-0.19,0-0.47-0.67,0.04-1.5c0.43-0.7,1.26-0.77,1.26-0.77
		S74.19,18.61,73.87,19.2z"/>
</g>
</svg>
