<?xml version="1.0" encoding="utf-8"?>
<!-- Generator: Adobe Illustrator 24.0.0, SVG Export Plug-In . SVG Version: 6.00 Build 0)  -->
<svg version="1.1" id="Layer_1" xmlns="http://www.w3.org/2000/svg" xmlns:xlink="http://www.w3.org/1999/xlink" x="0px" y="0px"
	 viewBox="0 0 13 13" style="enable-background:new 0 0 13 13;" xml:space="preserve">
<style type="text/css">
	.st0{fill:#666666;}
	.st1{fill:#333333;}
	.st2{fill:#FFFFFF;}
	.st3{fill:#FF3333;}
</style>
<circle class="st0" cx="6.5" cy="6.5" r="6"/>
<path class="st1" d="M4.28,11.65C5,11.98,5.8,12.16,6.64,12.16c3.14,0,5.68-2.54,5.68-5.68S9.78,0.79,6.64,0.79
	c-1.19,0-2.29,0.36-3.2,0.99c0,0.02,0,0.05,0,0.08C3.49,1.96,3.7,2.14,3.95,2.3c0.42,0.26,0.78,0.21,0.88,0.19
	C4.35,3.07,3.88,3.66,3.69,4.35C3.54,4.87,3.55,5.45,3.4,6.29C3.23,7.23,2.67,7.86,2.67,7.86s0.62,1.21,1.87,1.12
	c2-0.33,1.94-1.07,3.01-1.34c0.92-0.23,1.26,0.01,1.7,0.5c0.41,0.46,0.29,1.54-0.19,2.19C7.34,12.65,4.8,11.81,4.28,11.65z"/>
<path class="st2" d="M4.7,8.15c0,0,1.03-0.6,2.25-2.88c1.25-2.35,3.33-1.59,4.24-0.43c0.96,1.21,0.56,2.68,0.56,2.68
	s-1.84-3.14-3.6-1.52C6.39,7.64,4.7,8.15,4.7,8.15z"/>
<path class="st2" d="M8.51,6.8c0,0,1.37,0.19,1.72,1.71c0.34,1.46-0.68,2.54-0.68,2.54s0.78-0.54,1.07-0.94
	c0.32-0.44,0.67-1.38,0.31-2.48C10.41,6.06,8.51,6.8,8.51,6.8z"/>
<path class="st3" d="M8.12,1.3C6.19,0.66,4.31,1.54,4.31,1.54s0.28,0.24,0.88,0.31C5.63,1.9,6.96,1.94,6.96,1.94
	S6.05,2.37,5.57,2.82C5.21,3.16,4.67,3.86,4.5,4.28c-0.15,0.4-0.22,1.44-0.3,1.86C4.14,6.52,3.81,7.46,3.81,7.46s0.8,0,1.43-0.76
	C5.66,6.2,6.2,4.98,6.59,4.42c0.37-0.53,1.02-1.27,2.24-1.39c1.41-0.14,2.37,0.66,2.37,0.66S10.31,2.02,8.12,1.3z M5.44,4.77
	c-0.08,0.14-0.3,0.55-0.42,0.55c-0.1,0-0.25-0.35,0.02-0.79c0.23-0.36,0.66-0.4,0.66-0.4S5.61,4.46,5.44,4.77z"/>
</svg>
